<svg width="290" height="208" viewBox="0 0 290 208" fill="none" xmlns="http://www.w3.org/2000/svg">
<path d="M107.478 79L61.8 206.899H45.6782L0 79H16.8383L45.6782 161.042C46.9919 164.505 48.1263 167.849 49.0817 171.073C50.0371 174.297 50.873 177.402 51.5895 180.388C52.4255 183.254 53.142 186.12 53.7391 188.986C54.3362 186.12 54.993 183.194 55.7095 180.209C56.5455 177.223 57.4411 174.118 58.3965 170.894C59.4713 167.67 60.6058 164.266 61.8 160.683L90.4608 79H107.478Z" fill="url(#paint0_linear_5289_8404)"/>
<path d="M178.783 207.164H132.567V197.849L147.614 194.445V92.1579L132.567 88.5752V79.2601H178.783V88.5752L163.736 92.1579V194.445L178.783 197.849V207.164Z" fill="url(#paint1_linear_5289_8404)"/>
<path d="M155.993 52.2469C157.973 52.2469 159.871 51.4606 161.271 50.0608C162.671 48.661 163.457 46.7627 163.457 44.7831C163.457 42.8035 162.671 40.9052 161.271 39.5054C159.871 38.1056 157.973 37.3193 155.993 37.3193C154.014 37.3193 152.115 38.1056 150.715 39.5054C149.316 40.9052 148.529 42.8035 148.529 44.7831C148.529 46.7627 149.316 48.661 150.715 50.0608C152.115 51.4606 154.014 52.2469 155.993 52.2469ZM163.457 7.46414C163.457 9.44211 162.688 11.2408 161.43 12.5768L171.223 24.8174C171.356 24.9845 171.542 25.1008 171.751 25.147C171.959 25.1932 172.177 25.1664 172.369 25.0712L182.258 20.1227C182.044 19.04 182.073 17.9235 182.342 16.8531C182.611 15.7827 183.113 14.7851 183.813 13.9318C184.513 13.0785 185.393 12.3908 186.39 11.9177C187.387 11.4447 188.476 11.1983 189.58 11.196C191.415 11.1964 193.185 11.8726 194.553 13.0957C195.921 14.3187 196.791 16.0026 196.996 17.8261C197.201 19.6496 196.727 21.4845 195.664 22.9807C194.602 24.4769 193.026 25.5293 191.237 25.937L184.505 61.849C184.224 63.3459 183.428 64.6973 182.256 65.6698C181.084 66.6423 179.609 67.1745 178.086 67.1744H133.9C132.377 67.1745 130.902 66.6423 129.73 65.6698C128.558 64.6973 127.763 63.3459 127.482 61.849L120.749 25.937C119.318 25.6106 118.015 24.8697 117.004 23.8068C115.992 22.7438 115.315 21.4062 115.06 19.9611C114.804 18.5159 114.98 17.0275 115.565 15.6817C116.151 14.336 117.12 13.1929 118.352 12.3952C119.584 11.5974 121.024 11.1806 122.491 11.1968C123.959 11.213 125.389 11.6614 126.603 12.4861C127.817 13.3108 128.761 14.475 129.317 15.8333C129.873 17.1916 130.016 18.6835 129.728 20.1227L139.618 25.0712C139.809 25.1664 140.027 25.1932 140.235 25.147C140.444 25.1008 140.63 24.9845 140.763 24.8174L150.556 12.5768C149.722 11.6897 149.117 10.612 148.795 9.43756C148.473 8.26313 148.443 7.02786 148.708 5.83928C148.973 4.65069 149.525 3.54512 150.316 2.61878C151.106 1.69245 152.111 0.973674 153.243 0.525018C154.375 0.076361 155.6 -0.0884636 156.81 0.0448928C158.021 0.178249 159.18 0.605713 160.188 1.29007C161.195 1.97443 162.019 2.89476 162.589 3.97097C163.159 5.04717 163.457 6.24635 163.457 7.46414ZM155.993 14.9279H155.844L145.133 28.3142C144.2 29.4802 142.895 30.2909 141.437 30.6115C139.978 30.932 138.453 30.7429 137.117 30.0757L126.612 24.8249L126.276 25.0451L132.982 60.8153C133.022 61.0294 133.136 61.2227 133.304 61.3618C133.472 61.5008 133.683 61.5768 133.9 61.5766H178.086C178.304 61.5768 178.515 61.5008 178.682 61.3618C178.85 61.2227 178.964 61.0294 179.004 60.8153L185.71 25.0451L185.374 24.8249L174.869 30.0757C173.532 30.7439 172.007 30.9335 170.548 30.613C169.088 30.2924 167.783 29.4811 166.849 28.3142L156.142 14.9279H155.993Z" fill="url(#paint2_linear_5289_8404)"/>
<path d="M241.012 77.582C257.731 77.582 269.912 80.8661 277.554 87.4342C285.197 94.0023 289.019 103.257 289.019 115.199C289.019 120.454 288.123 125.529 286.332 130.425C284.66 135.202 281.854 139.501 277.913 143.323C273.972 147.144 268.717 150.19 262.149 152.459C255.581 154.608 247.52 155.683 237.967 155.683H223.278V205.481H207.156V77.582H241.012ZM239.579 91.3751H223.278V141.89H236.175C244.296 141.89 251.043 141.054 256.417 139.382C261.791 137.591 265.792 134.784 268.419 130.963C271.046 127.141 272.36 122.126 272.36 115.916C272.36 107.676 269.732 101.526 264.478 97.4655C259.223 93.4052 250.924 91.3751 239.579 91.3751Z" fill="url(#paint3_linear_5289_8404)"/>
<defs>
<linearGradient id="paint0_linear_5289_8404" x1="53.7391" y1="79" x2="53.7391" y2="206.899" gradientUnits="userSpaceOnUse">
<stop stop-color="#D7872C"/>
<stop offset="1" stop-color="#D8B987"/>
</linearGradient>
<linearGradient id="paint1_linear_5289_8404" x1="156.156" y1="5.50049" x2="155.714" y2="207.165" gradientUnits="userSpaceOnUse">
<stop stop-color="#D7872C"/>
<stop offset="0.25" stop-color="#D8B987"/>
<stop offset="0.468613" stop-color="#D78F3B"/>
<stop offset="1" stop-color="#D8B987"/>
</linearGradient>
<linearGradient id="paint2_linear_5289_8404" x1="156.156" y1="5.50049" x2="155.714" y2="207.165" gradientUnits="userSpaceOnUse">
<stop stop-color="#D7872C"/>
<stop offset="0.25" stop-color="#D8B987"/>
<stop offset="0.468613" stop-color="#D78F3B"/>
<stop offset="1" stop-color="#D8B987"/>
</linearGradient>
<linearGradient id="paint3_linear_5289_8404" x1="248.088" y1="77.582" x2="248.088" y2="205.481" gradientUnits="userSpaceOnUse">
<stop stop-color="#D7872C"/>
<stop offset="1" stop-color="#D8B987"/>
</linearGradient>
</defs>
</svg>
